<?xml version="1.0" encoding="UTF-8" standalone="no"?>
<svg
   xmlns:dc="http://purl.org/dc/elements/1.1/"
   xmlns:cc="http://creativecommons.org/ns#"
   xmlns:rdf="http://www.w3.org/1999/02/22-rdf-syntax-ns#"
   xmlns:svg="http://www.w3.org/2000/svg"
   xmlns="http://www.w3.org/2000/svg"
   xmlns:xlink="http://www.w3.org/1999/xlink"
   xmlns:sodipodi="http://sodipodi.sourceforge.net/DTD/sodipodi-0.dtd"
   xmlns:inkscape="http://www.inkscape.org/namespaces/inkscape"
   inkscape:version="1.0 (4035a4fb49, 2020-05-01)"
   height="81"
   width="656"
   sodipodi:docname="FR1000.svg"
   xml:space="preserve"
   viewBox="0 0 656 81"
   y="0px"
   x="0px"
   id="Livello_1"
   version="1.1"><metadata
   id="metadata106"><rdf:RDF><cc:Work
       rdf:about=""><dc:format>image/svg+xml</dc:format><dc:type
         rdf:resource="http://purl.org/dc/dcmitype/StillImage" /><dc:title></dc:title></cc:Work></rdf:RDF></metadata><defs
   id="defs104" /><sodipodi:namedview
   inkscape:current-layer="Livello_1"
   inkscape:window-maximized="0"
   inkscape:window-y="0"
   inkscape:window-x="-8"
   inkscape:cy="91.576616"
   inkscape:cx="343.5"
   inkscape:zoom="2.1848617"
   showgrid="false"
   id="namedview102"
   inkscape:window-height="924"
   inkscape:window-width="2325"
   inkscape:pageshadow="2"
   inkscape:pageopacity="0"
   guidetolerance="10"
   gridtolerance="10"
   objecttolerance="10"
   borderopacity="1"
   bordercolor="#666666"
   pagecolor="#ffffff" />
<style
   id="style2"
   type="text/css">
	.st0{fill:#F1F0F0;}
	.st1{clip-path:url(#SVGID_2_);fill:url(#SVGID_3_);}
	.st2{clip-path:url(#SVGID_5_);fill:url(#SVGID_6_);}
	.st3{clip-path:url(#SVGID_8_);fill:url(#SVGID_9_);}
	.st4{fill-rule:evenodd;clip-rule:evenodd;fill:#1F1A18;}
</style>
<g
   transform="translate(-20,-106)"
   id="g93">
	<polygon
   id="polygon4"
   points="659.83,170.15 27.25,170.15 19.99,185.84 652.72,185.84 "
   class="st0" />
	<g
   id="g31">
		<defs
   id="defs7">
			<polygon
   points="237.91,170.83 27.8,170.83 21.39,185.23 231.52,185.22 "
   id="SVGID_1_" />
		</defs>
		<clipPath
   id="SVGID_2_">
			<use
   height="100%"
   width="100%"
   y="0"
   x="0"
   id="use9"
   style="overflow:visible"
   xlink:href="#SVGID_1_" />
		</clipPath>
		
			<linearGradient
   gradientTransform="matrix(0,-17.8745,-17.8745,0,10264.799,-121.0223)"
   y2="567.01691"
   x2="-16.3279"
   y1="567.01691"
   x1="-17.1332"
   gradientUnits="userSpaceOnUse"
   id="SVGID_3_">
			<stop
   id="stop12"
   style="stop-color:#005826"
   offset="0" />
			<stop
   id="stop14"
   style="stop-color:#006F34"
   offset="0.1585" />
			<stop
   id="stop16"
   style="stop-color:#00833F"
   offset="0.317" />
			<stop
   id="stop18"
   style="stop-color:#009147"
   offset="0.4742" />
			<stop
   id="stop20"
   style="stop-color:#009B4B"
   offset="0.6299" />
			<stop
   id="stop22"
   style="stop-color:#00A04E"
   offset="0.7829" />
			<stop
   id="stop24"
   style="stop-color:#00A34F"
   offset="0.9307" />
			<stop
   id="stop26"
   style="stop-color:#005826"
   offset="1" />
		</linearGradient>
		<polygon
   style="fill:url(#SVGID_3_)"
   id="polygon29"
   clip-path="url(#SVGID_2_)"
   points="241.48,185.23 21.39,185.23 17.83,170.83 237.91,170.83 "
   class="st1" />
	</g>
	<g
   id="g62">
		<defs
   id="defs34">
			<polygon
   points="449.46,170.83 237.9,170.83 231.52,185.23 443.09,185.22 "
   id="SVGID_4_" />
		</defs>
		<clipPath
   id="SVGID_5_">
			<use
   height="100%"
   width="100%"
   y="0"
   x="0"
   id="use36"
   style="overflow:visible"
   xlink:href="#SVGID_4_" />
		</clipPath>
		
			<linearGradient
   gradientTransform="matrix(0,-17.8745,-17.8745,0,10439.416,-121.0223)"
   y2="564.9906"
   x2="-16.3279"
   y1="564.9906"
   x1="-17.1332"
   gradientUnits="userSpaceOnUse"
   id="SVGID_6_">
			<stop
   id="stop39"
   style="stop-color:#939598"
   offset="0" />
			<stop
   id="stop41"
   style="stop-color:#A6A8AB"
   offset="0.0951" />
			<stop
   id="stop43"
   style="stop-color:#C4C6C8"
   offset="0.2652" />
			<stop
   id="stop45"
   style="stop-color:#DCDEDF"
   offset="0.4356" />
			<stop
   id="stop47"
   style="stop-color:#EEEEEF"
   offset="0.6041" />
			<stop
   id="stop49"
   style="stop-color:#F9F9F9"
   offset="0.77" />
			<stop
   id="stop51"
   style="stop-color:#FFFFFF"
   offset="0.93" />
			<stop
   id="stop53"
   style="stop-color:#ECEDEE"
   offset="0.9432" />
			<stop
   id="stop55"
   style="stop-color:#C4C6C8"
   offset="0.9699" />
			<stop
   id="stop57"
   style="stop-color:#939598"
   offset="1" />
		</linearGradient>
		<polygon
   style="fill:url(#SVGID_6_)"
   id="polygon60"
   clip-path="url(#SVGID_5_)"
   points="453.03,185.23 231.52,185.23 227.95,170.83 449.46,170.83 "
   class="st2" />
	</g>
	<g
   id="g91">
		<defs
   id="defs65">
			<polygon
   points="658.12,170.83 449.46,170.83 443.09,185.23 651.94,185.22 "
   id="SVGID_7_" />
		</defs>
		<clipPath
   id="SVGID_8_">
			<use
   height="100%"
   width="100%"
   y="0"
   x="0"
   id="use67"
   style="overflow:visible"
   xlink:href="#SVGID_7_" />
		</clipPath>
		
			<linearGradient
   gradientTransform="matrix(0,-17.8745,-17.8745,0,10613.432,-121.0223)"
   y2="562.97089"
   x2="-16.3279"
   y1="562.97089"
   x1="-17.1332"
   gradientUnits="userSpaceOnUse"
   id="SVGID_9_">
			<stop
   id="stop70"
   style="stop-color:#820013"
   offset="0" />
			<stop
   id="stop72"
   style="stop-color:#820013"
   offset="3.649640e-03" />
			<stop
   id="stop74"
   style="stop-color:#95031C"
   offset="0.1069" />
			<stop
   id="stop76"
   style="stop-color:#B10D27"
   offset="0.2748" />
			<stop
   id="stop78"
   style="stop-color:#C7132F"
   offset="0.4428" />
			<stop
   id="stop80"
   style="stop-color:#D61633"
   offset="0.6091" />
			<stop
   id="stop82"
   style="stop-color:#E01836"
   offset="0.7728" />
			<stop
   id="stop84"
   style="stop-color:#E31837"
   offset="0.9307" />
			<stop
   id="stop86"
   style="stop-color:#840014"
   offset="1" />
		</linearGradient>
		<polygon
   style="fill:url(#SVGID_9_)"
   id="polygon89"
   clip-path="url(#SVGID_8_)"
   points="661.69,185.23 443.09,185.23 439.52,170.83 658.12,170.83 "
   class="st3" />
	</g>
</g>
<g
   transform="translate(-20,-106)"
   id="g99">
	<g
   id="g97">
		<path
   id="path95"
   d="m 656.88,116.19 c -6.37,0 -11.28,4.11 -14.77,12.33 -1.21,2.85 -1.82,5.18 -1.82,7 0,1.13 0.23,2 0.7,2.63 0.79,1.06 2.37,1.6 4.73,1.6 3.48,0 6.5,-1.23 9.06,-3.69 2.03,-1.94 3.91,-4.85 5.65,-8.72 1.23,-2.73 1.85,-4.99 1.85,-6.78 -0.01,-2.91 -1.81,-4.37 -5.4,-4.37 m -13.7,32.27 c -9.49,0 -14.23,-3.43 -14.23,-10.29 0,-2.97 0.89,-6.57 2.68,-10.78 5.64,-13.28 14.91,-19.92 27.79,-19.92 9.47,0 14.21,3.42 14.21,10.26 0,2.95 -0.9,6.53 -2.68,10.73 -2.78,6.57 -6.32,11.49 -10.61,14.73 -4.64,3.52 -10.36,5.27 -17.16,5.27 z m -32.95,-32.27 c -6.37,0 -11.28,4.11 -14.77,12.33 -1.21,2.85 -1.82,5.18 -1.82,7 0,1.13 0.23,2 0.7,2.63 0.79,1.06 2.37,1.6 4.73,1.6 3.48,0 6.5,-1.23 9.06,-3.69 2.03,-1.94 3.91,-4.85 5.65,-8.72 1.23,-2.73 1.85,-4.99 1.85,-6.78 -0.01,-2.91 -1.81,-4.37 -5.4,-4.37 z m -13.7,32.27 c -9.49,0 -14.23,-3.43 -14.23,-10.29 0,-2.97 0.89,-6.57 2.68,-10.78 5.64,-13.28 14.91,-19.92 27.79,-19.92 9.47,0 14.21,3.42 14.21,10.26 0,2.95 -0.9,6.53 -2.68,10.73 -2.78,6.57 -6.32,11.49 -10.61,14.73 -4.64,3.52 -10.36,5.27 -17.16,5.27 z m -32.95,-32.27 c -6.37,0 -11.28,4.11 -14.77,12.33 -1.21,2.85 -1.82,5.18 -1.82,7 0,1.13 0.23,2 0.7,2.63 0.79,1.06 2.37,1.6 4.73,1.6 3.48,0 6.5,-1.23 9.06,-3.69 2.03,-1.94 3.91,-4.85 5.65,-8.72 1.23,-2.73 1.85,-4.99 1.85,-6.78 -0.01,-2.91 -1.81,-4.37 -5.4,-4.37 z m -13.71,32.27 c -9.49,0 -14.23,-3.43 -14.23,-10.29 0,-2.97 0.89,-6.57 2.68,-10.78 5.64,-13.28 14.91,-19.92 27.79,-19.92 9.47,0 14.21,3.42 14.21,10.26 0,2.95 -0.9,6.53 -2.68,10.73 -2.78,6.57 -6.32,11.49 -10.61,14.73 -4.64,3.52 -10.35,5.27 -17.16,5.27 z m -27.45,-0.58 h -10.85 l 16.98,-39.97 h 10.84 z m -43.21,-18.21 h 7.02 l 0.38,-9.26 z m 17.45,18.21 h -11.14 l 0.35,-8.96 h -14.14 l -7.05,8.96 h -11.52 l 33.56,-39.97 h 10.05 z M 462.6,117.15 h -19.98 c -3.52,0 -5.87,1.4 -7.06,4.18 -0.2,0.45 -0.28,0.83 -0.28,1.12 0,0.76 0.78,1.14 2.33,1.14 h 10.23 c 3.93,0 6.64,0.58 8.11,1.73 1.32,1.05 1.99,2.54 1.99,4.49 0,1.71 -0.51,3.75 -1.52,6.13 -1.77,4.16 -4.2,7.2 -7.32,9.13 -3.01,1.87 -6.84,2.8 -11.5,2.8 H 415 l 3.92,-9.25 h 20.25 c 1.79,0 3.17,-0.21 4.12,-0.65 1.14,-0.51 1.98,-1.41 2.54,-2.73 0.38,-0.91 0.54,-1.54 0.48,-1.89 -0.02,-0.09 -0.04,-0.16 -0.08,-0.2 -0.33,-0.37 -1.28,-0.55 -2.86,-0.55 h -9.12 c -6.89,0 -10.34,-2.29 -10.34,-6.87 0,-1.66 0.47,-3.59 1.41,-5.8 3.39,-8.03 9.68,-12.04 18.84,-12.04 h 22.37 z m -41.5,0 h -19.98 c -3.52,0 -5.87,1.4 -7.06,4.18 -0.2,0.45 -0.28,0.83 -0.28,1.12 0,0.76 0.78,1.14 2.33,1.14 h 10.23 c 3.93,0 6.64,0.58 8.11,1.73 1.32,1.05 1.99,2.54 1.99,4.49 0,1.71 -0.51,3.75 -1.52,6.13 -1.77,4.16 -4.2,7.2 -7.32,9.13 -3.01,1.87 -6.84,2.8 -11.5,2.8 h -22.6 l 3.92,-9.25 h 20.25 c 1.79,0 3.17,-0.21 4.12,-0.65 1.14,-0.51 1.98,-1.41 2.54,-2.73 0.38,-0.91 0.54,-1.54 0.48,-1.89 -0.02,-0.09 -0.04,-0.16 -0.08,-0.2 -0.33,-0.37 -1.28,-0.55 -2.86,-0.55 h -9.12 c -6.89,0 -10.34,-2.29 -10.34,-6.87 0,-1.66 0.47,-3.59 1.41,-5.8 3.39,-8.03 9.68,-12.04 18.84,-12.04 h 22.37 z m -59.9,-1 c -6.19,0 -11,4.05 -14.45,12.17 -1.48,3.5 -2.22,6.11 -2.22,7.82 0,0.17 0.01,0.32 0.03,0.46 0.2,2.1 2.02,3.15 5.46,3.15 3.53,0 6.54,-1.21 9.05,-3.64 2.01,-1.94 3.83,-4.85 5.46,-8.7 1.31,-3.08 1.95,-5.53 1.95,-7.37 0,-0.81 -0.13,-1.48 -0.37,-1.99 -0.64,-1.27 -2.27,-1.9 -4.91,-1.9 z m 14.12,12.27 c -5.73,13.5 -15.02,20.24 -27.88,20.24 -9.34,0 -14.01,-3.57 -14.01,-10.69 0,-3.05 0.87,-6.62 2.61,-10.73 2.78,-6.53 6.26,-11.42 10.43,-14.68 4.66,-3.61 10.43,-5.41 17.32,-5.41 9.63,0 14.45,3.37 14.45,10.1 0.01,2.85 -0.97,6.57 -2.92,11.17 z M 318.81,117.2 h -8.59 l -2.92,6.87 h 7.47 c 2.33,0 3.93,-0.18 4.81,-0.53 1.3,-0.52 2.33,-1.69 3.09,-3.49 0.5,-1.17 0.6,-1.88 0.28,-2.12 -0.6,-0.48 -1.97,-0.73 -4.14,-0.73 z m 2.53,14.69 2.37,15.99 h -11.19 l -2.01,-14.61 h -7.17 l -6.2,14.61 H 286.6 l 16.96,-39.97 h 19.92 c 7.23,0 10.84,2.33 10.84,6.98 0,1.72 -0.51,3.76 -1.5,6.13 -2.34,5.55 -6.17,9.17 -11.48,10.87 z m -57.25,-2.22 h 7.02 l 0.38,-9.26 z m 17.45,18.21 H 270.4 l 0.35,-8.96 h -14.13 l -7.05,8.96 h -11.52 l 33.56,-39.97 h 10.05 z m -48.83,0 h -10.9 l 16.96,-39.97 h 10.91 z m -2.68,-31.06 h -13.58 c -3.17,0 -5.9,1.15 -8.17,3.44 -1.76,1.79 -3.43,4.51 -5.01,8.16 -0.33,0.71 -0.82,1.83 -1.46,3.33 -0.59,1.53 -0.9,2.77 -0.9,3.73 0,2.23 1.67,3.35 5.02,3.35 h 14.75 l -3.84,9.04 h -13.9 c -5.82,0 -9.73,-1.6 -11.74,-4.81 -0.95,-1.5 -1.42,-3.3 -1.42,-5.39 0,-2.7 0.79,-5.91 2.37,-9.63 5.69,-13.43 14.63,-20.15 26.81,-20.15 h 14.85 z m -35.99,0 h -13.58 c -3.17,0 -5.9,1.15 -8.17,3.44 -1.76,1.79 -3.43,4.51 -5.01,8.16 -0.33,0.71 -0.82,1.83 -1.46,3.33 -0.59,1.53 -0.9,2.77 -0.9,3.73 0,2.23 1.67,3.35 5.02,3.35 h 14.75 l -3.84,9.04 h -13.9 c -5.82,0 -9.73,-1.6 -11.74,-4.81 -0.95,-1.5 -1.42,-3.3 -1.42,-5.39 0,-2.7 0.79,-5.91 2.37,-9.63 5.69,-13.43 14.63,-20.15 26.81,-20.15 h 14.85 z m -38.5,0.11 h -13.59 c -4.22,0 -7.61,2.08 -10.19,6.23 h 21.14 l -3.86,9.09 H 127.6 c -0.56,1.56 -0.84,2.83 -0.84,3.79 0,0.62 0.12,1.13 0.36,1.5 0.58,0.86 2.04,1.3 4.39,1.3 h 14.74 l -3.84,9.04 h -13.9 c -5.82,0 -9.73,-1.6 -11.74,-4.81 -0.95,-1.5 -1.42,-3.3 -1.42,-5.39 0,-2.7 0.79,-5.91 2.37,-9.63 3.14,-7.41 7.01,-12.71 11.6,-15.9 4.08,-2.84 9.15,-4.25 15.22,-4.25 h 14.85 z m -54.64,0.27 h -8.59 l -2.92,6.87 h 7.47 c 2.33,0 3.93,-0.18 4.81,-0.53 1.3,-0.52 2.33,-1.69 3.09,-3.49 0.5,-1.17 0.59,-1.88 0.28,-2.12 -0.6,-0.48 -1.97,-0.73 -4.14,-0.73 z m 2.53,14.69 2.37,15.99 H 94.62 l -2.01,-14.61 h -7.17 l -6.2,14.61 H 68.71 l 16.96,-39.97 h 19.92 c 7.23,0 10.84,2.33 10.84,6.98 0,1.72 -0.51,3.76 -1.5,6.13 -2.36,5.55 -6.19,9.17 -11.5,10.87 z M 76.95,116.93 H 63.64 c -4.85,0 -8.67,2.2 -11.44,6.61 h 21.94 l -3.81,8.97 H 48.23 L 41.7,147.87 H 31.08 l 8.05,-18.97 c 2.02,-4.76 3.68,-8.15 4.98,-10.19 2.25,-3.51 4.95,-6.1 8.14,-7.78 C 56.09,108.91 61,107.9 67,107.9 h 13.79 z"
   class="st4" />
	</g>
</g>
</svg>
