<!-- Generated by IcoMoon.io -->
<svg version="1.1" xmlns="http://www.w3.org/2000/svg" width="21" height="32" viewBox="0 0 21 32">
<title>walk</title>
<path d="M14.228 6.002c1.072 0 2.062-0.572 2.599-1.5s0.537-2.073 0-3.001c-0.535-0.928-1.527-1.5-2.599-1.5-1.657 0-2.999 1.344-2.999 3.001s1.342 3.001 2.999 3.001zM20.135 15.317l-1.458-0.736-0.604-1.836c-0.919-2.789-3.481-4.74-6.388-4.747-2.249-0.005-3.493 0.633-5.831 1.575-1.355 0.551-2.46 1.577-3.106 2.889l-0.42 0.852c-0.491 0.985-0.094 2.181 0.887 2.681 0.471 0.236 1.015 0.274 1.515 0.107 0.498-0.169 0.91-0.528 1.141-1.001l0.418-0.852c0.219-0.437 0.581-0.779 1.031-0.96l1.676-0.676-0.951 3.792c-0.324 1.303 0.027 2.684 0.932 3.675l3.742 4.089c0.45 0.492 0.77 1.084 0.932 1.73l1.145 4.581c0.27 1.070 1.353 1.721 2.425 1.454 1.070-0.268 1.721-1.353 1.456-2.425l-1.388-5.559c-0.16-0.647-0.48-1.241-0.93-1.732l-2.844-3.106 1.076-4.293 0.343 1.031c0.331 1.006 1.045 1.836 1.982 2.311l1.454 0.738c0.471 0.236 1.015 0.276 1.515 0.107 0.498-0.167 0.91-0.526 1.141-0.999 0.485-0.99 0.089-2.185-0.892-2.688h0.002zM5.829 24.112c-0.199 0.505-0.498 0.962-0.887 1.344l-3.124 3.129c-0.78 0.782-0.78 2.048 0 2.83 0.373 0.373 0.882 0.585 1.412 0.585s1.038-0.21 1.413-0.587l3.712-3.71c0.38-0.382 0.679-0.837 0.887-1.344l0.843-2.112c-3.456-3.769-2.418-2.613-2.962-3.356l-1.294 3.218v0.004z"></path>
</svg>
